<svg width="130" height="45" viewBox="0 0 130 45" fill="none" xmlns="http://www.w3.org/2000/svg">
<path d="M53.5875 16.0771H52.4813V26.8305H53.5875V16.0771Z" fill="#01448C"/>
<path d="M62.8058 26.8307V22.2809C62.8058 21.1166 62.533 20.2563 61.9799 19.6853C61.6885 19.3997 61.3415 19.1779 60.9608 19.0337C60.5801 18.8894 60.1738 18.826 59.7675 18.8473C59.2034 18.8416 58.6486 18.9917 58.1635 19.2811C57.6914 19.553 57.3073 19.9559 57.0573 20.4417L56.9798 19.0438H55.7814V26.8307H57.2564V22.8631C57.2082 22.1173 57.4532 21.3823 57.9385 20.8163C58.1551 20.5822 58.4186 20.397 58.7116 20.273C59.0047 20.149 59.3206 20.089 59.6384 20.0969C60.9978 20.0969 61.6787 20.8954 61.6812 22.4923V26.8307H62.8058Z" fill="#01448C"/>
<path d="M65.0182 26.8304H66.4932V20.1559H68.3368V19.0435H66.4932V17.7976C66.4932 17.7976 66.4932 17.1486 66.6591 16.9892C66.7738 16.8962 66.9091 16.8325 67.0536 16.8035C67.198 16.7744 67.3473 16.7809 67.4888 16.8223H67.9681V15.7099H67.109C66.5492 15.6709 65.9956 15.8472 65.5603 16.2031C65.3677 16.4119 65.2208 16.6592 65.1294 16.9287C65.0379 17.1983 65.0038 17.4842 65.0293 17.7679V19.0472H63.9231V20.1596H65.0293L65.0182 26.8304Z" fill="#01448C"/>
<path d="M72.9866 26.9418C73.6665 26.951 74.3368 26.7796 74.9298 26.445C75.509 26.1171 75.9854 25.6329 76.3052 25.047C76.6349 24.3885 76.8067 23.6615 76.8067 22.9242C76.8067 22.1869 76.6349 21.4598 76.3052 20.8013C75.991 20.2162 75.5195 19.7318 74.9446 19.4034C74.3543 19.069 73.6861 18.8987 73.0087 18.9102C72.3288 18.901 71.6585 19.0724 71.0655 19.4071C70.4876 19.735 70.0115 20.2176 69.6901 20.8013C69.3388 21.4514 69.1634 22.1827 69.1812 22.9223C69.1665 23.6628 69.3417 24.3945 69.6901 25.047C70.003 25.6319 70.4732 26.1163 71.047 26.445C71.6385 26.7802 72.3077 26.9516 72.9866 26.9418ZM70.5161 22.9223C70.4979 22.3661 70.6183 21.8142 70.8664 21.3167C71.0705 20.9237 71.3785 20.595 71.7565 20.3667C72.1345 20.1383 72.5678 20.0193 73.0087 20.0226C73.4347 20.0214 73.8533 20.134 74.2218 20.3489C74.6116 20.5784 74.9277 20.9156 75.1326 21.3204C75.3794 21.8182 75.4985 22.3701 75.4792 22.926C75.4934 23.4852 75.3666 24.0388 75.1105 24.5353C74.9062 24.9301 74.5973 25.2604 74.2178 25.4895C73.8384 25.7185 73.4033 25.8375 72.9608 25.8331C72.537 25.8348 72.1206 25.7222 71.755 25.5068C71.3666 25.2744 71.05 24.938 70.8405 24.5353C70.6002 24.0333 70.4886 23.4788 70.5161 22.9223Z" fill="#01448C"/>
<path d="M55.7667 30.9092H52.4813V41.6625H55.7667C57.6498 41.6625 59.0362 41.1842 59.9261 40.2275C60.816 39.2708 61.2621 37.9742 61.2646 36.3378C61.2646 34.6568 60.8184 33.3355 59.9261 32.3739C59.0337 31.4122 57.6473 30.924 55.7667 30.9092ZM59.3103 38.5811C59.057 39.2078 58.594 39.7258 58.0013 40.0458C57.2368 40.42 56.391 40.5947 55.5418 40.5538H53.5875V32.0253H55.5418C56.3922 31.9858 57.2385 32.1644 58.0013 32.5444C58.5956 32.871 59.0584 33.3954 59.3103 34.0276C59.5903 34.7645 59.7243 35.5492 59.7048 36.3378C59.7195 37.1042 59.5855 37.8662 59.3103 38.5811Z" fill="#01448C"/>
<path d="M68.418 34.3465C67.8396 34.0019 67.1763 33.8284 66.5042 33.8459C65.8126 33.8308 65.1298 34.0038 64.5278 34.3465C63.9629 34.6803 63.5028 35.1673 63.2004 35.7519C62.8716 36.4051 62.7083 37.1298 62.7247 37.8617C62.7067 38.5971 62.8728 39.3252 63.2078 39.979C63.5126 40.5599 63.9723 41.044 64.5352 41.377C65.1235 41.7171 65.7926 41.8901 66.4711 41.8776C67.267 41.9089 68.0491 41.6611 68.6835 41.1767C69.242 40.7313 69.6513 40.1243 69.856 39.4377H68.5839C68.4255 39.8325 68.1565 40.1725 67.8096 40.4166C67.4125 40.6738 66.9468 40.8031 66.4747 40.7874C66.0701 40.7881 65.6719 40.686 65.3169 40.4907C64.9422 40.2874 64.6289 39.9865 64.4098 39.6194C64.1763 39.2267 64.0362 38.7851 64.0005 38.329H70.0588C70.0588 38.0138 70.0588 37.8877 70.0588 37.7728C70.0588 37.6578 70.0588 37.5466 70.0588 37.4316C70.0617 36.8189 69.9134 36.215 69.6274 35.674C69.3501 35.1304 68.9323 34.6718 68.418 34.3465ZM64.019 37.2128C64.0333 36.8966 64.1136 36.587 64.2546 36.304C64.3956 36.021 64.5943 35.771 64.8376 35.5702C65.3025 35.1985 65.8808 34.9994 66.4747 35.0066C67.0715 34.9884 67.6529 35.1992 68.1009 35.5961C68.3253 35.8012 68.5044 36.0514 68.6264 36.3306C68.7483 36.6097 68.8105 36.9116 68.8088 37.2165L64.019 37.2128Z" fill="#01448C"/>
<path d="M74.4284 40.391L72.1054 33.876H70.73L73.6651 41.6629H75.1806L78.112 33.876H76.7698L74.4284 40.391Z" fill="#01448C"/>
<path d="M84.4653 34.3465C83.8882 34.002 83.2261 33.8285 82.5553 33.8459C81.8637 33.8316 81.1811 34.0045 80.5789 34.3465C80.0139 34.6803 79.5539 35.1673 79.2514 35.7519C78.9227 36.4051 78.7593 37.1298 78.7757 37.8617C78.7577 38.5971 78.9238 39.3252 79.2588 39.979C79.5661 40.5594 80.0267 41.0431 80.5899 41.377C81.1767 41.7174 81.8447 41.8905 82.5221 41.8775C83.3181 41.9095 84.1004 41.6617 84.7345 41.1767C85.2928 40.7304 85.7031 40.1239 85.9108 39.4377H84.6349C84.4743 39.8323 84.2026 40.1712 83.8532 40.4129C83.4548 40.6701 82.988 40.7995 82.5147 40.7837C82.1101 40.7843 81.7119 40.6823 81.3569 40.487C80.9822 40.2837 80.6689 39.9827 80.4498 39.6156C80.2162 39.2233 80.0772 38.7813 80.0442 38.3252H86.1099C86.1099 38.0101 86.1099 37.884 86.1099 37.769C86.1099 37.6541 86.1099 37.5428 86.1099 37.4279C86.1127 36.8152 85.9645 36.2113 85.6785 35.6703C85.4006 35.1268 84.9813 34.6693 84.4653 34.3465ZM80.0663 37.2128C80.0813 36.8964 80.1623 36.5866 80.3039 36.3037C80.4456 36.0207 80.6448 35.7708 80.8886 35.5702C81.3517 35.1976 81.9291 34.9984 82.5221 35.0065C83.1199 34.989 83.7022 35.1996 84.1519 35.5961C84.3751 35.8019 84.5531 36.0524 84.6744 36.3314C84.7957 36.6105 84.8576 36.912 84.8562 37.2165L80.0663 37.2128Z" fill="#01448C"/>
<path d="M88.986 30.5386H87.8798V41.6627H88.986V30.5386Z" fill="#01448C"/>
<path d="M96.6814 34.3393C96.0868 34.0141 95.4206 33.8438 94.7437 33.8438C94.0668 33.8438 93.4007 34.0141 92.806 34.3393C92.233 34.6702 91.7621 35.154 91.4454 35.7372C91.0945 36.3887 90.9191 37.1212 90.9366 37.8619C90.9198 38.6017 91.0925 39.3333 91.438 39.9866C91.753 40.5699 92.2227 41.0539 92.795 41.3846C93.3908 41.7082 94.0574 41.8776 94.7345 41.8776C95.4117 41.8776 96.0782 41.7082 96.6741 41.3846C97.2517 41.0547 97.7276 40.571 98.0494 39.9866C98.3978 39.3343 98.5719 38.6022 98.5546 37.8619C98.572 37.1226 98.4006 36.3911 98.0568 35.7372C97.7375 35.151 97.261 34.6666 96.6814 34.3393ZM96.8658 39.4675C96.657 39.8741 96.3372 40.2124 95.944 40.4427C95.5699 40.6568 95.1464 40.768 94.7161 40.7653C94.2929 40.7666 93.8769 40.6553 93.5103 40.4427C93.1209 40.2099 92.8042 39.8721 92.5959 39.4675C92.365 38.9641 92.2455 38.4163 92.2455 37.8619C92.2455 37.3076 92.365 36.7598 92.5959 36.2564C92.75 35.9668 92.9602 35.7113 93.2142 35.5048C93.4681 35.2984 93.7607 35.1452 94.0745 35.0543C94.3883 34.9633 94.717 34.9366 95.0413 34.9756C95.3655 35.0145 95.6787 35.1184 95.9624 35.2811C96.3525 35.512 96.6685 35.8504 96.8732 36.2564C97.12 36.7541 97.2391 37.3061 97.2198 37.8619C97.2386 38.4186 97.1168 38.971 96.8658 39.4675Z" fill="#01448C"/>
<path d="M106.405 34.3725C105.807 34.0118 105.119 33.8293 104.421 33.846C103.81 33.8202 103.204 33.9763 102.681 34.2947C102.265 34.5536 101.906 34.8956 101.626 35.2996L101.505 33.8757H100.417V44.9998H101.523V40.4167C101.845 40.8617 102.26 41.2301 102.74 41.4957C103.256 41.7555 103.829 41.8828 104.406 41.8665C105.105 41.8828 105.794 41.7044 106.398 41.3511C106.961 41.01 107.419 40.5166 107.718 39.9272C108.038 39.2883 108.198 38.5808 108.186 37.8655C108.197 37.1481 108.036 36.4384 107.718 35.7964C107.418 35.2099 106.964 34.7173 106.405 34.3725ZM106.541 39.3747C106.333 39.7913 106.014 40.1416 105.62 40.387C105.209 40.6252 104.743 40.7506 104.268 40.7506C103.794 40.7506 103.328 40.6252 102.917 40.387C102.523 40.1406 102.204 39.7905 101.995 39.3747C101.774 38.9013 101.659 38.3848 101.659 37.8618C101.659 37.3389 101.774 36.8223 101.995 36.3489C102.204 35.9254 102.53 35.5708 102.933 35.3271C103.336 35.0834 103.8 34.9606 104.27 34.9733C104.738 34.9603 105.201 35.0817 105.603 35.3234C106.005 35.565 106.331 35.9169 106.541 36.3378C106.765 36.8106 106.881 37.3273 106.881 37.8507C106.881 38.374 106.765 38.8908 106.541 39.3636V39.3747Z" fill="#01448C"/>
<path d="M115.35 34.3465C114.772 34.0019 114.109 33.8284 113.437 33.8459C112.746 33.8311 112.065 34.0041 111.464 34.3465C110.899 34.6803 110.439 35.1673 110.137 35.7519C109.808 36.4051 109.644 37.1298 109.661 37.8617C109.641 38.5973 109.807 39.3258 110.144 39.979C110.449 40.5599 110.908 41.044 111.471 41.377C112.06 41.7171 112.729 41.8901 113.407 41.8776C114.203 41.9089 114.985 41.6611 115.62 41.1767C116.177 40.7302 116.586 40.1236 116.792 39.4377H115.52C115.357 39.8318 115.084 40.1703 114.735 40.4129C114.338 40.6701 113.872 40.7994 113.4 40.7837C112.994 40.784 112.595 40.682 112.238 40.487C111.865 40.2826 111.554 39.9818 111.335 39.6156C111.1 39.2236 110.96 38.7816 110.926 38.3253H116.999C116.999 38.0101 116.999 37.884 116.999 37.769C116.999 37.6541 116.999 37.5429 116.999 37.4279C117.002 36.8152 116.853 36.2113 116.567 35.6703C116.286 35.1279 115.866 34.6709 115.35 34.3465ZM110.948 37.2128C110.964 36.8966 111.045 36.5871 111.187 36.3043C111.328 36.0215 111.527 35.7714 111.77 35.5702C112.235 35.1985 112.813 34.9994 113.407 35.0066C114.008 34.9856 114.594 35.1965 115.044 35.5961C115.269 35.8012 115.448 36.0514 115.57 36.3306C115.692 36.6097 115.754 36.9116 115.752 37.2165L110.948 37.2128Z" fill="#01448C"/>
<path d="M119.945 35.2666L119.834 33.876H118.854V41.6629H119.96V37.4803C119.934 36.9624 120.055 36.4479 120.31 35.9971C120.533 35.6438 120.864 35.373 121.254 35.2258C121.666 35.0694 122.104 34.9914 122.545 34.9959H122.913V33.7018C122.272 33.6803 121.637 33.8272 121.07 34.1282C120.589 34.3854 120.198 34.7821 119.945 35.2666Z" fill="#01448C"/>
<path d="M129.602 38.0435C129.328 37.7516 128.986 37.5336 128.606 37.4094C128.185 37.2599 127.756 37.1361 127.32 37.0386C126.885 36.9526 126.463 36.8092 126.066 36.6122C125.931 36.5532 125.816 36.4565 125.734 36.3335C125.652 36.2106 125.608 36.0666 125.605 35.9188C125.601 35.7742 125.633 35.631 125.697 35.5017C125.762 35.3724 125.857 35.2609 125.974 35.1771C126.273 34.9707 126.633 34.8714 126.995 34.8953C127.38 34.876 127.759 34.9884 128.072 35.2142C128.206 35.3206 128.317 35.4528 128.399 35.6031C128.482 35.7534 128.533 35.9187 128.551 36.0893H129.768C129.747 35.7682 129.66 35.455 129.512 35.1696C129.364 34.8842 129.159 34.633 128.909 34.4318C128.361 34.0247 127.691 33.818 127.01 33.846C126.306 33.8128 125.615 34.0397 125.067 34.4837C124.838 34.6752 124.656 34.916 124.532 35.1882C124.409 35.4604 124.349 35.757 124.355 36.056C124.346 36.2524 124.377 36.4485 124.445 36.6327C124.514 36.8169 124.618 36.9852 124.753 37.1276C125.031 37.407 125.368 37.621 125.738 37.7542C126.119 37.9003 126.511 38.0144 126.91 38.0954C127.371 38.1777 127.821 38.3107 128.253 38.4921C128.413 38.573 128.544 38.7014 128.629 38.8599C128.714 39.0184 128.749 39.1994 128.728 39.3784C128.728 39.5291 128.694 39.6778 128.631 39.8143C128.567 39.9507 128.474 40.0715 128.359 40.1682C128.031 40.4177 127.623 40.5365 127.213 40.5019C126.734 40.5276 126.262 40.3774 125.885 40.0792C125.573 39.8278 125.358 39.4751 125.277 39.0817H124.016C124.051 39.4363 124.16 39.7796 124.335 40.0899C124.509 40.4001 124.746 40.6704 125.03 40.8838C125.664 41.3406 126.433 41.568 127.213 41.529C127.949 41.5683 128.675 41.3407 129.259 40.8875C129.499 40.6913 129.69 40.4419 129.818 40.1588C129.946 39.8758 130.007 39.5667 129.997 39.256C130.024 38.816 129.883 38.382 129.602 38.0435Z" fill="#01448C"/>
<path d="M42.2009 30.8686C41.2176 29.3162 40.2417 27.7625 39.2732 26.2076C37.7245 23.7603 36.1684 21.3241 34.6234 18.8731C33.0305 16.3516 31.4523 13.819 29.8668 11.2939C28.7237 9.47198 27.5782 7.65256 26.4302 5.83562C25.7591 4.7677 25.1212 3.67754 24.4169 2.63187C23.926 1.91424 23.3941 1.22586 22.8239 0.570197C22.582 0.278005 22.2436 0.0831214 21.8705 0.0211653C21.4975 -0.0407909 21.1147 0.0343182 20.7922 0.232765C20.5375 0.390281 20.3313 0.615813 20.1965 0.884237C20.0618 1.15266 20.0037 1.45344 20.0289 1.75306C20.0289 14.9339 20.0289 28.1173 20.0289 41.3031V41.6739H20.335C26.6035 41.6739 32.8498 41.6739 39.1036 41.6739C39.9005 41.6704 40.6836 41.4646 41.3804 41.0757C42.0772 40.6868 42.6651 40.1273 43.0896 39.4491C43.5866 38.7053 43.9174 37.8621 44.0593 36.9774C44.2013 36.0928 44.151 35.1877 43.9119 34.3245C43.5726 33.0527 42.8868 31.9625 42.2009 30.8686ZM29.8299 39.1821C28.3805 39.1835 26.9632 38.7527 25.7574 37.944C24.5515 37.1353 23.6113 35.9851 23.0556 34.6389C22.4999 33.2927 22.3538 31.8111 22.6357 30.3813C22.9175 28.9516 23.6147 27.6381 24.6391 26.6069C25.6635 25.5758 26.969 24.8733 28.3904 24.5884C29.8119 24.3035 31.2854 24.449 32.6246 25.0064C33.9639 25.5639 35.1086 26.5082 35.914 27.72C36.7194 28.9318 37.1493 30.3566 37.1493 31.8142C37.1367 33.7631 36.3618 35.6287 34.9921 37.0075C33.6223 38.3863 31.7679 39.1675 29.8299 39.1821Z" fill="#01448C"/>
<path d="M17.4515 12.5769C17.4395 12.336 17.3596 12.1035 17.2212 11.9065C17.0828 11.7096 16.8916 11.5563 16.6698 11.4644C16.4469 11.3808 16.2026 11.3747 15.9759 11.4474C15.7493 11.52 15.5534 11.667 15.4198 11.8649C15.0842 12.3025 14.7819 12.7697 14.4869 13.2369C13.5257 14.7473 12.567 16.2676 11.6107 17.7978L8.07458 23.4711C7.2818 24.7393 6.48533 26.0074 5.69624 27.2793C4.51998 29.163 3.34371 31.0392 2.17851 32.9266C1.56641 33.9241 0.939564 34.9141 0.397524 35.9672C-0.778739 38.192 0.722011 41.5997 4.0185 41.6628C8.37325 41.7481 12.728 41.6628 17.0791 41.6628H17.4478V12.74C17.4515 12.6918 17.4552 12.6362 17.4515 12.5769Z" fill="#0386D1"/>
<path d="M14.9478 4.72708C14.4187 4.72565 13.9011 4.8817 13.46 5.17558C13.019 5.46945 12.6742 5.888 12.4693 6.3785C12.2643 6.86901 12.2083 7.40955 12.3082 7.93202C12.4081 8.4545 12.6596 8.93555 13.0309 9.31459C13.4022 9.69363 13.8767 9.95371 14.3947 10.0621C14.9127 10.1704 15.451 10.1222 15.9418 9.92351C16.4326 9.72481 16.854 9.38449 17.1528 8.94544C17.4516 8.50638 17.6146 7.98821 17.6211 7.4562C17.628 7.09934 17.5639 6.7447 17.4325 6.41313C17.3011 6.08157 17.1051 5.77977 16.856 5.52549C16.6069 5.27122 16.3098 5.06959 15.9821 4.93248C15.6544 4.79536 15.3027 4.72553 14.9478 4.72708Z" fill="#01448C"/>
</svg>
